  0
SECTION
  2
HEADER
  9
$ACADVER
  1
AC1018
  9
$ACADMAINTVER
 70
     0
  9
$DWGCODEPAGE
  3
ANSI_1252
  9
$EXTMIN
 10
7509371.52506563
 20
4689196.75291449
 30
0.0
  9
$EXTMAX
 10
7513868.91277419
 20
4693078.71444974
 30
0.0
  9
$LIMMIN
 10
0.0
 20
0.0
  9
$LIMMAX
 10
12.0
 20
9.0
  9
$ORTHOMODE
 70
     0
  9
$REGENMODE
 70
     1
  9
$FILLMODE
 70
     1
  9
$QTEXTMODE
 70
     0
  9
$MIRRTEXT
 70
     1
  9
$LTSCALE
 40
1.0
  9
$ATTMODE
 70
     1
  9
$TEXTSIZE
 40
0.2
  9
$TRACEWID
 40
0.05
  9
$TEXTSTYLE
  7
Standard
  9
$CLAYER
  8
0
  9
$CELTYPE
  6
ByLayer
  9
$CECOLOR
 62
   256
  9
$CELTSCALE
 40
1.0
  9
$DISPSILH
 70
     0
  9
$LUNITS
 70
     2
  9
$LUPREC
 70
     4
  9
$SKETCHINC
 40
0.1
  9
$FILLETRAD
 40
0.5
  9
$AUNITS
 70
     0
  9
$AUPREC
 70
     0
  9
$MENU
  1
.
  9
$ELEVATION
 40
0.0
  9
$PELEVATION
 40
0.0
  9
$THICKNESS
 40
0.0
  9
$LIMCHECK
 70
     0
  9
$CHAMFERA
 40
0.5
  9
$CHAMFERB
 40
0.5
  9
$CHAMFERC
 40
1.0
  9
$CHAMFERD
 40
0.0
  9
$SKPOLY
 70
     0
  9
$ANGBASE
 50
0.0
  9
$ANGDIR
 70
     0
  9
$PDMODE
 70
     0
  9
$PDSIZE
 40
0.0
  9
$PLINEWID
 40
0.0
  9
$SPLFRAME
 70
     0
  9
$SPLINETYPE
 70
     6
  9
$SPLINESEGS
 70
     8
  9
$HANDSEED
  5
00020065
  9
$SURFTAB1
 70
     6
  9
$SURFTAB2
 70
     6
  9
$SURFTYPE
 70
     6
  9
$SURFU
 70
     6
  9
$SURFV
 70
     6
  9
$UCSBASE
  2

  9
$UCSNAME
  2

  9
$UCSORG
 10
0.0
 20
0.0
 30
0.0
  9
$UCSXDIR
 10
1.0
 20
0.0
 30
0.0
  9
$UCSYDIR
 10
0.0
 20
1.0
 30
0.0
  9
$UCSORTHOREF
  2

  9
$UCSORTHOVIEW
 70
     0
  9
$UCSORGTOP
 10
0.0
 20
0.0
 30
0.0
  9
$UCSORGBOTTOM
 10
0.0
 20
0.0
 30
0.0
  9
$UCSORGLEFT
 10
0.0
 20
0.0
 30
0.0
  9
$UCSORGRIGHT
 10
0.0
 20
0.0
 30
0.0
  9
$UCSORGFRONT
 10
0.0
 20
0.0
 30
0.0
  9
$UCSORGBACK
 10
0.0
 20
0.0
 30
0.0
  9
$PUCSBASE
  2

  9
$PUCSNAME
  2

  9
$PUCSORG
 10
0.0
 20
0.0
 30
0.0
  9
$PUCSXDIR
 10
1.0
 20
0.0
 30
0.0
  9
$PUCSYDIR
 10
0.0
 20
1.0
 30
0.0
  9
$PUCSORTHOREF
  2

  9
$PUCSORTHOVIEW
 70
     0
  9
$PUCSORGTOP
 10
0.0
 20
0.0
 30
0.0
  9
$PUCSORGBOTTOM
 10
0.0
 20
0.0
 30
0.0
  9
$PUCSORGLEFT
 10
0.0
 20
0.0
 30
0.0
  9
$PUCSORGRIGHT
 10
0.0
 20
0.0
 30
0.0
  9
$PUCSORGFRONT
 10
0.0
 20
0.0
 30
0.0
  9
$PUCSORGBACK
 10
0.0
 20
0.0
 30
0.0
  9
$WORLDVIEW
 70
     1
  9
$SHADEDGE
 70
     3
  9
$SHADEDIF
 70
    70
  9
$TILEMODE
 70
     1
  9
$MAXACTVP
 70
    64
  9
$PINSBASE
 10
0.0
 20
0.0
 30
0.0
  9
$PLIMCHECK
 70
     0
  9
$PEXTMIN
 10
1.000000000000000E+20
 20
1.000000000000000E+20
 30
1.000000000000000E+20
  9
$PEXTMAX
 10
-1.000000000000000E+20
 20
-1.000000000000000E+20
 30
-1.000000000000000E+20
  9
$PLIMMIN
 10
0.0
 20
0.0
  9
$PLIMMAX
 10
12.0
 20
9.0
  9
$UNITMODE
 70
     0
  9
$VISRETAIN
 70
     1
  9
$PLINEGEN
 70
     0
  9
$PSLTSCALE
 70
     1
  9
$TREEDEPTH
 70
  3020
  9
$CMLSTYLE
  2
Standard
  9
$CMLJUST
 70
     0
  9
$CMLSCALE
 40
1.0
  9
$PROXYGRAPHICS
 70
     1
  9
$MEASUREMENT
 70
     0
  9
$CELWEIGHT
370
    -1
  9
$ENDCAPS
280
     0
  9
$JOINSTYLE
280
     0
  9
$LWDISPLAY
290
     0
  9
$INSUNITS
 70
     1
  9
$HYPERLINKBASE
  1

  9
$STYLESHEET
  1

  9
$XEDIT
290
     1
  9
$CEPSNTYPE
380
     0
  9
$PSTYLEMODE
290
     1
  9
$EXTNAMES
290
     1
  9
$PSVPSCALE
 40
0.0
  9
$OLESTARTUP
290
     0
  9
$SORTENTS
280
   127
  9
$INDEXCTL
280
     0
  9
$HIDETEXT
280
     1
  9
$XCLIPFRAME
290
     0
  9
$HALOGAP
280
     0
  9
$OBSCOLOR
 70
   257
  9
$OBSLTYPE
280
     0
  9
$INTERSECTIONDISPLAY
280
     0
  9
$INTERSECTIONCOLOR
 70
   257
  9
$DIMASSOC
280
     2
  9
$PROJECTNAME
  1

  0
ENDSEC
  0
SECTION
  2
CLASSES
  0
CLASS
  1
ACDBDICTIONARYWDFLT
  2
AcDbDictionaryWithDefault
  3
ObjectDBX Classes
 90
        0
 91
        4
280
     0
281
     0
  0
ENDSEC
  0
SECTION
  2
TABLES
  0
TABLE
  2
VPORT
  5
8
330
0
100
AcDbSymbolTable
 70
     1
  0
VPORT
  5
29
330
8
100
AcDbSymbolTableRecord
100
AcDbViewportTableRecord
  2
*Active
 70
     0
 10
0.0
 20
0.0
 11
1.0
 21
1.0
 12
80.25
 22
106.4409457059851
 13
0.0
 23
0.0
 14
0.5
 24
0.5
 15
0.5
 25
0.5
 16
0.0
 26
0.0
 36
1.0
 17
0.0
 27
0.0
 37
0.0
 40
113.3818914119703
 41
0.8863849310366128
 42
50.0
 43
0.0
 44
0.0
 50
0.0
 51
0.0
 71
     0
 72
  1000
 73
     1
 74
     3
 75
     0
 76
     0
 77
     0
 78
     0
281
     0
 65
     1
110
0.0
120
0.0
130
0.0
111
1.0
121
0.0
131
0.0
112
0.0
122
1.0
132
0.0
 79
     0
146
0.0
  0
ENDTAB
  0
TABLE
  2
LTYPE
  5
5
330
0
100
AcDbSymbolTable
 70
     1
  0
LTYPE
  5
14
330
5
100
AcDbSymbolTableRecord
100
AcDbLinetypeTableRecord
  2
ByBlock
 70
     0
  3

 72
    65
 73
     0
 40
0.0
  0
LTYPE
  5
15
330
5
100
AcDbSymbolTableRecord
100
AcDbLinetypeTableRecord
  2
ByLayer
 70
     0
  3

 72
    65
 73
     0
 40
0.0
  0
LTYPE
  5
16
330
5
100
AcDbSymbolTableRecord
100
AcDbLinetypeTableRecord
  2
Continuous
 70
     0
  3
Solid line
 72
    65
 73
     0
 40
0.0
  0
ENDTAB
  0
TABLE
  2
LAYER
  5
2
330
0
100
AcDbSymbolTable
 70
     1
  0
LAYER
  5
10
330
2
100
AcDbSymbolTableRecord
100
AcDbLayerTableRecord
  2
0
 70
     0
 62
     7
  6
Continuous
370
    -3
390
F
  0
ENDTAB
  0
TABLE
  2
STYLE
  5
3
330
0
100
AcDbSymbolTable
 70
     1
  0
STYLE
  5
11
330
3
100
AcDbSymbolTableRecord
100
AcDbTextStyleTableRecord
  2
Standard
 70
     0
 40
0.0
 41
1.0
 50
0.0
 71
     0
 42
0.2
  3
txt
  4

  0
ENDTAB
  0
TABLE
  2
VIEW
  5
6
330
0
100
AcDbSymbolTable
 70
     0
  0
ENDTAB
  0
TABLE
  2
UCS
  5
7
330
0
100
AcDbSymbolTable
 70
     0
  0
ENDTAB
  0
TABLE
  2
APPID
  5
9
330
0
100
AcDbSymbolTable
 70
     1
  0
APPID
  5
12
330
9
100
AcDbSymbolTableRecord
100
AcDbRegAppTableRecord
  2
ACAD
 70
     0
  0
ENDTAB
  0
TABLE
  2
DIMSTYLE
  5
A
330
0
100
AcDbSymbolTable
 70
     1
100
AcDbDimStyleTable
  0
DIMSTYLE
105
27
330
A
100
AcDbSymbolTableRecord
100
AcDbDimStyleTableRecord
  2
Standard
 70
     0
340
11
  0
ENDTAB
  0
TABLE
  2
BLOCK_RECORD
  5
1
330
0
100
AcDbSymbolTable
 70
     1
  0
BLOCK_RECORD
  5
1F
330
1
100
AcDbSymbolTableRecord
100
AcDbBlockTableRecord
  2
*Model_Space
340
22
  0
BLOCK_RECORD
  5
1B
330
1
100
AcDbSymbolTableRecord
100
AcDbBlockTableRecord
  2
*Paper_Space
340
1E
  0
ENDTAB
  0
ENDSEC
  0
SECTION
  2
BLOCKS
  0
BLOCK
  5
20
330
1F
100
AcDbEntity
  8
0
100
AcDbBlockBegin
  2
*Model_Space
 70
     0
 10
0.0
 20
0.0
 30
0.0
  3
*Model_Space
  1

  0
ENDBLK
  5
21
330
1F
100
AcDbEntity
  8
0
100
AcDbBlockEnd
  0
BLOCK
  5
1C
330
1B
100
AcDbEntity
 67
     1
  8
0
100
AcDbBlockBegin
  2
*Paper_Space
 70
     0
 10
0.0
 20
0.0
 30
0.0
  3
*Paper_Space
  1

  0
ENDBLK
  5
1D
330
1B
100
AcDbEntity
 67
     1
  8
0
100
AcDbBlockEnd
  0
ENDSEC
  0
SECTION
  2
ENTITIES
  0
POINT
  5
20000
100
AcDbEntity
  8
0
100
AcDbPoint
 10
7511679.25377729
 20
4691027.68787406
 30
611.20094999671
  0
POINT
  5
20001
100
AcDbEntity
  8
0
100
AcDbPoint
 10
7511764.24719502
 20
4691108.11786962
 30
611.056749997661
  0
POINT
  5
20002
100
AcDbEntity
  8
0
100
AcDbPoint
 10
7511870.88377971
 20
4691906.97263385
 30
613.897949997336
  0
POINT
  5
20003
100
AcDbEntity
  8
0
100
AcDbPoint
 10
7511855.72780221
 20
4691835.30370582
 30
614.613949995488
  0
POINT
  5
20004
100
AcDbEntity
  8
0
100
AcDbPoint
 10
7511835.5704775
 20
4691719.90173597
 30
614.33694999665
  0
POINT
  5
20005
100
AcDbEntity
  8
0
100
AcDbPoint
 10
7511803.69346291
 20
4691607.29858814
 30
613.919949997216
  0
POINT
  5
20006
100
AcDbEntity
  8
0
100
AcDbPoint
 10
7511741.6420105
 20
4691490.6107269
 30
613.888949996792
  0
POINT
  5
20007
100
AcDbEntity
  8
0
100
AcDbPoint
 10
7511636.68363892
 20
4691224.96731834
 30
616.664549996145
  0
POINT
  5
20008
100
AcDbEntity
  8
0
100
AcDbPoint
 10
7510414.62223411
 20
4689818.85015842
 30
641.922549996525
  0
POINT
  5
20009
100
AcDbEntity
  8
0
100
AcDbPoint
 10
7510415.6400787
 20
4689818.85037539
 30
641.971349996515
  0
POINT
  5
2000A
100
AcDbEntity
  8
0
100
AcDbPoint
 10
7509782.98313252
 20
4689642.01205127
 30
643.215149996802
  0
POINT
  5
2000B
100
AcDbEntity
  8
0
100
AcDbPoint
 10
7509789.74375007
 20
4689635.9953987
 30
643.138549997471
  0
POINT
  5
2000C
100
AcDbEntity
  8
0
100
AcDbPoint
 10
7509784.84985754
 20
4689629.75895497
 30
643.502349996008
  0
POINT
  5
2000D
100
AcDbEntity
  8
0
100
AcDbPoint
 10
7509419.56416794
 20
4689196.75291449
 30
661.190549996682
  0
POINT
  5
2000E
100
AcDbEntity
  8
0
100
AcDbPoint
 10
7509654.38063474
 20
4689412.42418413
 30
649.012749996968
  0
POINT
  5
2000F
100
AcDbEntity
  8
0
100
AcDbPoint
 10
7509371.52506563
 20
4689570.4092755
 30
650.966149995103
  0
POINT
  5
20010
100
AcDbEntity
  8
0
100
AcDbPoint
 10
7510216.98985239
 20
4690194.13020096
 30
647.101149996743
  0
POINT
  5
20011
100
AcDbEntity
  8
0
100
AcDbPoint
 10
7510741.14412645
 20
4690170.9364991
 30
635.62494999636
  0
POINT
  5
20012
100
AcDbEntity
  8
0
100
AcDbPoint
 10
7511023.12991872
 20
4690842.56335851
 30
615.335549995303
  0
POINT
  5
20013
100
AcDbEntity
  8
0
100
AcDbPoint
 10
7511311.51546668
 20
4691147.70108166
 30
614.212149995379
  0
POINT
  5
20014
100
AcDbEntity
  8
0
100
AcDbPoint
 10
7511143.40865385
 20
4691181.34051648
 30
615.735349996947
  0
POINT
  5
20015
100
AcDbEntity
  8
0
100
AcDbPoint
 10
7510857.89843179
 20
4691328.10491536
 30
618.558549996465
  0
POINT
  5
20016
100
AcDbEntity
  8
0
100
AcDbPoint
 10
7511062.41701057
 20
4692235.37314921
 30
622.107749996707
  0
POINT
  5
20017
100
AcDbEntity
  8
0
100
AcDbPoint
 10
7511062.93625668
 20
4692235.33105963
 30
622.097149996087
  0
POINT
  5
20018
100
AcDbEntity
  8
0
100
AcDbPoint
 10
7511062.65172161
 20
4692234.95093697
 30
622.176949996501
  0
POINT
  5
20019
100
AcDbEntity
  8
0
100
AcDbPoint
 10
7510531.91172418
 20
4691899.26273199
 30
624.189749996178
  0
POINT
  5
2001A
100
AcDbEntity
  8
0
100
AcDbPoint
 10
7511900.73323378
 20
4692007.55925988
 30
615.257349994965
  0
POINT
  5
2001B
100
AcDbEntity
  8
0
100
AcDbPoint
 10
7512313.18172686
 20
4692218.81996831
 30
623.490549996495
  0
POINT
  5
2001C
100
AcDbEntity
  8
0
100
AcDbPoint
 10
7512353.39345093
 20
4692186.55894922
 30
623.642149996012
  0
POINT
  5
2001D
100
AcDbEntity
  8
0
100
AcDbPoint
 10
7512248.34023532
 20
4691664.60611686
 30
611.700349997729
  0
POINT
  5
2001E
100
AcDbEntity
  8
0
100
AcDbPoint
 10
7512094.47538983
 20
4691684.76097896
 30
612.341549996287
  0
POINT
  5
2001F
100
AcDbEntity
  8
0
100
AcDbPoint
 10
7511801.05849221
 20
4691849.64712741
 30
615.17414999567
  0
POINT
  5
20020
100
AcDbEntity
  8
0
100
AcDbPoint
 10
7512380.00514809
 20
4692391.1660681
 30
624.185949996114
  0
POINT
  5
20021
100
AcDbEntity
  8
0
100
AcDbPoint
 10
7512452.97497853
 20
4692119.64192347
 30
621.724949995987
  0
POINT
  5
20022
100
AcDbEntity
  8
0
100
AcDbPoint
 10
7512450.20790936
 20
4692115.10354433
 30
621.471749996766
  0
POINT
  5
20023
100
AcDbEntity
  8
0
100
AcDbPoint
 10
7512505.17016169
 20
4692183.69973946
 30
621.811149996705
  0
POINT
  5
20024
100
AcDbEntity
  8
0
100
AcDbPoint
 10
7512575.37363003
 20
4692158.19008507
 30
622.876149996184
  0
POINT
  5
20025
100
AcDbEntity
  8
0
100
AcDbPoint
 10
7510384.15093682
 20
4692038.75953578
 30
626.344749998301
  0
POINT
  5
20026
100
AcDbEntity
  8
0
100
AcDbPoint
 10
7513439.01209897
 20
4692977.02824206
 30
619.639549995773
  0
POINT
  5
20027
100
AcDbEntity
  8
0
100
AcDbPoint
 10
7513503.72399884
 20
4692996.00648241
 30
619.793949996121
  0
POINT
  5
20028
100
AcDbEntity
  8
0
100
AcDbPoint
 10
7513638.39410636
 20
4693033.58327587
 30
619.474349997006
  0
POINT
  5
20029
100
AcDbEntity
  8
0
100
AcDbPoint
 10
7513754.5661076
 20
4693072.07057874
 30
619.398549996316
  0
POINT
  5
2002A
100
AcDbEntity
  8
0
100
AcDbPoint
 10
7513788.16861829
 20
4693063.79988013
 30
619.335549996234
  0
POINT
  5
2002B
100
AcDbEntity
  8
0
100
AcDbPoint
 10
7513799.84634567
 20
4693078.71444974
 30
619.055349995382
  0
POINT
  5
2002C
100
AcDbEntity
  8
0
100
AcDbPoint
 10
7513868.91277419
 20
4692025.1939459
 30
620.231949996203
  0
POINT
  5
2002D
100
AcDbEntity
  8
0
100
AcDbPoint
 10
7513638.63467336
 20
4691982.20734942
 30
619.421149996109
  0
POINT
  5
2002E
100
AcDbEntity
  8
0
100
AcDbPoint
 10
7513639.46955137
 20
4691982.29079686
 30
619.379549996927
  0
POINT
  5
2002F
100
AcDbEntity
  8
0
100
AcDbPoint
 10
7513638.88573015
 20
4691982.62549776
 30
619.377149997279
  0
POINT
  5
20030
100
AcDbEntity
  8
0
100
AcDbPoint
 10
7513592.13812924
 20
4691980.50110532
 30
618.986349997111
  0
POINT
  5
20031
100
AcDbEntity
  8
0
100
AcDbPoint
 10
7513551.71606492
 20
4691975.84732034
 30
618.513949996792
  0
POINT
  5
20032
100
AcDbEntity
  8
0
100
AcDbPoint
 10
7513529.28564864
 20
4691972.46408193
 30
618.425149996765
  0
POINT
  5
20033
100
AcDbEntity
  8
0
100
AcDbPoint
 10
7513323.88920633
 20
4691927.12249717
 30
622.016749996692
  0
POINT
  5
20034
100
AcDbEntity
  8
0
100
AcDbPoint
 10
7513323.32750635
 20
4691926.67307696
 30
622.006549996324
  0
POINT
  5
20035
100
AcDbEntity
  8
0
100
AcDbPoint
 10
7513324.28552705
 20
4691926.9171428
 30
622.00294999592
  0
POINT
  5
20036
100
AcDbEntity
  8
0
100
AcDbPoint
 10
7513331.75236353
 20
4691920.92692302
 30
622.457949996926
  0
POINT
  5
20037
100
AcDbEntity
  8
0
100
AcDbPoint
 10
7513332.708814
 20
4691924.63503028
 30
617.754749997519
  0
POINT
  5
20038
100
AcDbEntity
  8
0
100
AcDbPoint
 10
7513333.43342838
 20
4691925.34599748
 30
617.826949995942
  0
POINT
  5
20039
100
AcDbEntity
  8
0
100
AcDbPoint
 10
7513194.95759317
 20
4691915.93016141
 30
619.303949996829
  0
POINT
  5
2003A
100
AcDbEntity
  8
0
100
AcDbPoint
 10
7513184.04420081
 20
4691899.02845139
 30
619.418549996801
  0
POINT
  5
2003B
100
AcDbEntity
  8
0
100
AcDbPoint
 10
7513181.96796144
 20
4691902.7301995
 30
619.430949996226
  0
POINT
  5
2003C
100
AcDbEntity
  8
0
100
AcDbPoint
 10
7513104.72857638
 20
4691888.54017346
 30
620.075549996458
  0
POINT
  5
2003D
100
AcDbEntity
  8
0
100
AcDbPoint
 10
7513067.07525124
 20
4691894.14225679
 30
620.282349996269
  0
POINT
  5
2003E
100
AcDbEntity
  8
0
100
AcDbPoint
 10
7513045.23116462
 20
4691877.60360567
 30
620.431749995798
  0
POINT
  5
2003F
100
AcDbEntity
  8
0
100
AcDbPoint
 10
7513044.89191384
 20
4691876.80005072
 30
620.441349996254
  0
POINT
  5
20040
100
AcDbEntity
  8
0
100
AcDbPoint
 10
7513022.95216707
 20
4691882.79648601
 30
620.736349996179
  0
POINT
  5
20041
100
AcDbEntity
  8
0
100
AcDbPoint
 10
7512747.07975279
 20
4692087.59206732
 30
622.067549997009
  0
POINT
  5
20042
100
AcDbEntity
  8
0
100
AcDbPoint
 10
7512617.27527052
 20
4692199.40339751
 30
618.381349995732
  0
POINT
  5
20043
100
AcDbEntity
  8
0
100
AcDbPoint
 10
7512617.59943225
 20
4692206.20722594
 30
618.604149996303
  0
POINT
  5
20044
100
AcDbEntity
  8
0
100
AcDbPoint
 10
7512372.12970212
 20
4692000.53444526
 30
611.866349995136
  0
POINT
  5
20045
100
AcDbEntity
  8
0
100
AcDbPoint
 10
7511986.04779362
 20
4692593.94378732
 30
620.15714999754
  0
POINT
  5
20046
100
AcDbEntity
  8
0
100
AcDbPoint
 10
7512978.94246954
 20
4692588.81617147
 30
624.479949995875
  0
POINT
  5
20047
100
AcDbEntity
  8
0
100
AcDbPoint
 10
7513186.9737072
 20
4692362.29503543
 30
621.048949996941
  0
POINT
  5
20048
100
AcDbEntity
  8
0
100
AcDbPoint
 10
7513151.88409694
 20
4692321.38611579
 30
620.828549996018
  0
POINT
  5
20049
100
AcDbEntity
  8
0
100
AcDbPoint
 10
7513151.65596203
 20
4692321.79320241
 30
620.82634999603
  0
POINT
  5
2004A
100
AcDbEntity
  8
0
100
AcDbPoint
 10
7513151.597496
 20
4692322.19712753
 30
620.866749997251
  0
POINT
  5
2004B
100
AcDbEntity
  8
0
100
AcDbPoint
 10
7513142.56306634
 20
4692325.4968201
 30
621.040749996901
  0
POINT
  5
2004C
100
AcDbEntity
  8
0
100
AcDbPoint
 10
7513061.25565907
 20
4692257.78270473
 30
621.498549996875
  0
POINT
  5
2004D
100
AcDbEntity
  8
0
100
AcDbPoint
 10
7513029.05076003
 20
4692220.95590668
 30
620.996949996799
  0
POINT
  5
2004E
100
AcDbEntity
  8
0
100
AcDbPoint
 10
7513076.58830094
 20
4692161.93122171
 30
620.456949996762
  0
POINT
  5
2004F
100
AcDbEntity
  8
0
100
AcDbPoint
 10
7513078.61274155
 20
4692157.53756509
 30
620.519549998455
  0
POINT
  5
20050
100
AcDbEntity
  8
0
100
AcDbPoint
 10
7513143.83085818
 20
4692048.90567829
 30
618.670549997129
  0
POINT
  5
20051
100
AcDbEntity
  8
0
100
AcDbPoint
 10
7513144.78618823
 20
4692049.37814807
 30
618.66034999676
  0
POINT
  5
20052
100
AcDbEntity
  8
0
100
AcDbPoint
 10
7513166.85999216
 20
4691974.31539894
 30
618.246949996799
  0
POINT
  5
20053
100
AcDbEntity
  8
0
100
AcDbPoint
 10
7513166.18008238
 20
4691982.9251729
 30
618.19574999623
  0
POINT
  5
20054
100
AcDbEntity
  8
0
100
AcDbPoint
 10
7513326.46876502
 20
4692058.12748501
 30
618.00554999616
  0
POINT
  5
20055
100
AcDbEntity
  8
0
100
AcDbPoint
 10
7513301.7884271
 20
4692169.68154911
 30
619.150149997324
  0
POINT
  5
20056
100
AcDbEntity
  8
0
100
AcDbPoint
 10
7513307.19450082
 20
4692235.14195529
 30
620.294349995442
  0
POINT
  5
20057
100
AcDbEntity
  8
0
100
AcDbPoint
 10
7513321.46115449
 20
4692277.27009161
 30
621.669549996965
  0
POINT
  5
20058
100
AcDbEntity
  8
0
100
AcDbPoint
 10
7513332.43563453
 20
4692314.66315683
 30
622.146349996328
  0
POINT
  5
20059
100
AcDbEntity
  8
0
100
AcDbPoint
 10
7513354.15838553
 20
4692348.56611156
 30
622.16554999724
  0
POINT
  5
2005A
100
AcDbEntity
  8
0
100
AcDbPoint
 10
7513333.70463412
 20
4692375.61143524
 30
622.110149998218
  0
POINT
  5
2005B
100
AcDbEntity
  8
0
100
AcDbPoint
 10
7513371.88972561
 20
4692402.41276454
 30
622.20654999651
  0
POINT
  5
2005C
100
AcDbEntity
  8
0
100
AcDbPoint
 10
7513372.88810821
 20
4692402.23077664
 30
622.159149996936
  0
POINT
  5
2005D
100
AcDbEntity
  8
0
100
AcDbPoint
 10
7513372.63262845
 20
4692403.51007236
 30
622.196549996734
  0
POINT
  5
2005E
100
AcDbEntity
  8
0
100
AcDbPoint
 10
7513346.68495522
 20
4692430.32869071
 30
622.145149995573
  0
POINT
  5
2005F
100
AcDbEntity
  8
0
100
AcDbPoint
 10
7513502.54370746
 20
4692427.38049986
 30
622.415549996309
  0
POINT
  5
20060
100
AcDbEntity
  8
0
100
AcDbPoint
 10
7513497.51835616
 20
4692446.06442153
 30
622.335349996574
  0
POINT
  5
20061
100
AcDbEntity
  8
0
100
AcDbPoint
 10
7513182.16246895
 20
4691752.82031909
 30
622.338949996047
  0
POINT
  5
20062
100
AcDbEntity
  8
0
100
AcDbPoint
 10
7512583.55797328
 20
4691392.53259395
 30
608.419749995694
  0
POINT
  5
20063
100
AcDbEntity
  8
0
100
AcDbPoint
 10
7512582.41972739
 20
4691392.76660903
 30
608.422549996525
  0
POINT
  5
20064
100
AcDbEntity
  8
0
100
AcDbPoint
 10
7512583.33969354
 20
4691392.98840169
 30
608.365349995904
  0
ENDSEC
  0
SECTION
  2
OBJECTS
  0
DICTIONARY
  5
C
330
0
100
AcDbDictionary
281
     1
  3
ACAD_GROUP
350
D
  3
ACAD_LAYOUT
350
1A
  3
ACAD_MLEADERSTYLE
350
43
  3
ACAD_PLOTSETTINGS
350
19
  3
ACAD_PLOTSTYLENAME
350
E
  3
ACAD_TABLESTYLE
350
42
  0
DICTIONARY
  5
D
102
{ACAD_REACTORS
330
C
102
}
330
C
100
AcDbDictionary
281
     1
  0
DICTIONARY
  5
1A
102
{ACAD_REACTORS
330
C
102
}
330
C
100
AcDbDictionary
281
     1
  3
Layout1
350
1E
  3
Model
350
22
  0
DICTIONARY
  5
43
102
{ACAD_REACTORS
330
C
102
}
330
C
100
AcDbDictionary
281
     1
  0
DICTIONARY
  5
19
102
{ACAD_REACTORS
330
C
102
}
330
C
100
AcDbDictionary
281
     1
  0
ACDBDICTIONARYWDFLT
  5
E
102
{ACAD_REACTORS
330
C
102
}
330
C
100
AcDbDictionary
281
     1
  3
Normal
350
F
100
AcDbDictionaryWithDefault
340
F
  0
DICTIONARY
  5
42
102
{ACAD_REACTORS
330
C
102
}
330
C
100
AcDbDictionary
281
     1
  0
LAYOUT
  5
1E
102
{ACAD_REACTORS
330
1A
102
}
330
1A
100
AcDbPlotSettings
  1

  2
none_device
  4

  6

 40
0.0
 41
0.0
 42
0.0
 43
0.0
 44
0.0
 45
0.0
 46
0.0
 47
0.0
 48
0.0
 49
0.0
140
0.0
141
0.0
142
1.0
143
1.0
 70
   688
 72
     0
 73
     0
 74
     5
  7

 75
    16
 76
     0
 77
     2
 78
   300
147
1.0
148
0.0
149
0.0
100
AcDbLayout
  1
Layout1
 70
     1
 71
     1
 10
0.0
 20
0.0
 11
12.0
 21
9.0
 12
0.0
 22
0.0
 32
0.0
 14
1.000000000000000E+20
 24
1.000000000000000E+20
 34
1.000000000000000E+20
 15
-1.000000000000000E+20
 25
-1.000000000000000E+20
 35
-1.000000000000000E+20
146
0.0
 13
0.0
 23
0.0
 33
0.0
 16
1.0
 26
0.0
 36
0.0
 17
0.0
 27
1.0
 37
0.0
 76
     0
330
1B
  0
LAYOUT
  5
22
102
{ACAD_REACTORS
330
1A
102
}
330
1A
100
AcDbPlotSettings
  1

  2
none_device
  4

  6

 40
0.0
 41
0.0
 42
0.0
 43
0.0
 44
0.0
 45
0.0
 46
0.0
 47
0.0
 48
0.0
 49
0.0
140
0.0
141
0.0
142
1.0
143
1.0
 70
  1712
 72
     0
 73
     0
 74
     0
  7

 75
     0
 76
     0
 77
     2
 78
   300
147
1.0
148
0.0
149
0.0
100
AcDbLayout
  1
Model
 70
     1
 71
     0
 10
0.0
 20
0.0
 11
12.0
 21
9.0
 12
0.0
 22
0.0
 32
0.0
 14
30.0
 24
49.75
 34
0.0
 15
130.5
 25
163.1318914119703
 35
0.0
146
0.0
 13
0.0
 23
0.0
 33
0.0
 16
1.0
 26
0.0
 36
0.0
 17
0.0
 27
1.0
 37
0.0
 76
     0
330
1F
331
29
  0
ACDBPLACEHOLDER
  5
F
102
{ACAD_REACTORS
330
E
102
}
330
E
  0
ENDSEC
  0
EOF
